<svg width="79" height="30" viewBox="0 0 79 30" fill="none" xmlns="http://www.w3.org/2000/svg">
<path d="M19.3248 0C16.2787 0 13.3574 1.21005 11.2035 3.36396L4.17402 10.3934C2.02011 12.5473 0.810059 15.4686 0.810059 18.5147C0.810059 24.8579 5.9522 30 12.2954 30C15.3415 30 18.2628 28.7899 20.4167 26.636L25.279 21.7737C25.279 21.7736 25.2791 21.7738 25.279 21.7737L39.4461 7.6066C40.4748 6.57791 41.87 6 43.3248 6C45.7604 6 47.8253 7.58741 48.5412 9.78407L53.0123 5.31296C50.9726 2.11834 47.3961 0 43.3248 0C40.2787 0 37.3574 1.21005 35.2035 3.36396L16.1741 22.3934C15.1454 23.4221 13.7502 24 12.2954 24C9.2659 24 6.81006 21.5442 6.81006 18.5147C6.81006 17.0599 7.38797 15.6647 8.41666 14.636L15.4461 7.6066C16.4748 6.57791 17.87 6 19.3248 6C21.7605 6 23.8253 7.58748 24.5412 9.78421L29.0124 5.31307C26.9727 2.1184 23.3962 0 19.3248 0Z" fill="#486A6F"/>
<path d="M40.1741 22.3934C39.1454 23.4221 37.7502 24 36.2954 24C33.8601 24 31.7954 22.413 31.0793 20.2167L26.6083 24.6877C28.6481 27.8819 32.2244 30 36.2954 30C39.3415 30 42.2628 28.7899 44.4167 26.636L63.4461 7.6066C64.4748 6.57791 65.87 6 67.3248 6C70.3543 6 72.8101 8.45584 72.8101 11.4853C72.8101 12.9401 72.2322 14.3353 71.2035 15.364L64.1741 22.3934C63.1454 23.4221 61.7502 24 60.2954 24C57.8599 24 55.7951 22.4127 55.0791 20.2162L50.6081 24.6873C52.6478 27.8818 56.2242 30 60.2954 30C63.3415 30 66.2628 28.7899 68.4167 26.636L75.4461 19.6066C77.6 17.4527 78.8101 14.5314 78.8101 11.4853C78.8101 5.14214 73.668 0 67.3248 0C64.2787 0 61.3574 1.21005 59.2035 3.36396L40.1741 22.3934Z" fill="#486A6F"/>
</svg>
