<svg width="96" height="46" viewBox="0 0 96 46" fill="none" xmlns="http://www.w3.org/2000/svg">
<path d="M0.810059 27.5165H3.64298V41.4072H0.810059V27.5165Z" fill="#486A6F"/>
<path d="M5.28606 36.6479C5.28419 35.6502 5.57834 34.6743 6.13129 33.8438C6.68424 33.0133 7.47113 32.3655 8.39239 31.9824C9.31359 31.5993 10.3278 31.4981 11.3066 31.6916C12.2854 31.8851 13.1848 32.3646 13.8909 33.0695C14.5971 33.7743 15.0783 34.6728 15.2736 35.6512C15.469 36.6296 15.3697 37.644 14.9883 38.566C14.6069 39.4879 13.9606 40.276 13.1311 40.8305C12.3017 41.3851 11.3264 41.681 10.3287 41.681C9.66509 41.6886 9.00679 41.5637 8.39219 41.3135C7.77761 41.0634 7.21912 40.6931 6.74948 40.2243C6.27984 39.7556 5.90849 39.1978 5.6572 38.5836C5.40591 37.9695 5.27973 37.3114 5.28606 36.6479ZM12.5194 36.6479C12.5083 36.2172 12.3704 35.7993 12.123 35.4466C11.8756 35.0938 11.5297 34.8219 11.1285 34.6647C10.7273 34.5075 10.2887 34.4722 9.86759 34.563C9.44639 34.6538 9.06139 34.8668 8.76059 35.1753C8.45989 35.4838 8.25679 35.8742 8.17673 36.2976C8.09668 36.7209 8.14326 37.1585 8.31059 37.5555C8.47799 37.9525 8.75869 38.2914 9.11759 38.5297C9.47659 38.768 9.89779 38.8952 10.3287 38.8953C10.6234 38.9036 10.9167 38.8507 11.19 38.7399C11.4633 38.6291 11.7107 38.4629 11.9166 38.2517C12.1224 38.0405 12.2823 37.789 12.386 37.513C12.4898 37.2369 12.5352 36.9424 12.5194 36.6479Z" fill="#486A6F"/>
<path d="M26.7595 31.8886V40.935C26.7595 44.1362 24.2571 45.4866 21.7264 45.4866C20.8365 45.5528 19.9455 45.3728 19.151 44.9664C18.3565 44.56 17.6892 43.9428 17.2221 43.1825L19.6584 41.7755C19.8517 42.1651 20.1576 42.4878 20.5364 42.7016C20.9152 42.9154 21.3495 43.0106 21.7831 42.9747C22.0683 43.0223 22.3607 43.0037 22.6377 42.9203C22.9147 42.837 23.1688 42.6912 23.3805 42.4941C23.5921 42.297 23.7557 42.0539 23.8586 41.7836C23.9615 41.5133 24.0009 41.223 23.9738 40.935V40.0568C23.6408 40.4666 23.2158 40.7921 22.7335 41.007C22.2512 41.2219 21.725 41.3202 21.1976 41.2939C19.9153 41.2939 18.6856 40.7845 17.7788 39.8778C16.8721 38.9711 16.3627 37.7413 16.3627 36.459C16.3627 35.1767 16.8721 33.947 17.7788 33.0403C18.6856 32.1336 19.9153 31.6242 21.1976 31.6242C21.7247 31.6001 22.2501 31.6994 22.7321 31.9141C23.2141 32.1289 23.6393 32.4532 23.9738 32.8612V31.9169L26.7595 31.8886ZM23.9738 36.459C23.9927 35.9998 23.8737 35.5454 23.6323 35.1542C23.3908 34.7631 23.0379 34.4531 22.6189 34.2642C22.1999 34.0752 21.7339 34.0159 21.2809 34.0939C20.8279 34.1718 20.4086 34.3835 20.0769 34.7016C19.7451 35.0198 19.5161 35.4299 19.4193 35.8792C19.3224 36.3285 19.3622 36.7966 19.5335 37.2231C19.7048 37.6497 19.9997 38.0152 20.3804 38.2728C20.7611 38.5305 21.2101 38.6683 21.6697 38.6687C21.9698 38.6899 22.2709 38.6481 22.5537 38.5458C22.8366 38.4435 23.0949 38.2832 23.312 38.075C23.529 37.8668 23.7001 37.6154 23.8141 37.3371C23.9281 37.0588 23.9825 36.7597 23.9738 36.459Z" fill="#486A6F"/>
<path d="M28.3932 36.6479C28.3913 35.6502 28.6855 34.6743 29.2384 33.8438C29.7914 33.0133 30.5783 32.3655 31.4995 31.9824C32.4207 31.5993 33.4349 31.4981 34.4137 31.6916C35.3925 31.8851 36.2919 32.3646 36.9981 33.0695C37.7042 33.7743 38.1854 34.6728 38.3808 35.6512C38.5761 36.6296 38.4768 37.644 38.0954 38.566C37.714 39.4879 37.0677 40.276 36.2383 40.8305C35.4088 41.3851 34.4335 41.681 33.4358 41.681C32.7723 41.6886 32.1139 41.5637 31.4993 41.3135C30.8847 41.0634 30.3262 40.6931 29.8566 40.2243C29.387 39.7556 29.0156 39.1978 28.7643 38.5836C28.513 37.9695 28.3868 37.3114 28.3932 36.6479ZM35.6266 36.6479C35.6154 36.2172 35.4775 35.7993 35.2301 35.4466C34.9827 35.0938 34.6368 34.8219 34.2356 34.6647C33.8345 34.5075 33.3959 34.4722 32.9747 34.563C32.5535 34.6538 32.1685 34.8668 31.8677 35.1753C31.567 35.4838 31.3639 35.8742 31.2838 36.2976C31.2038 36.7209 31.2504 37.1585 31.4177 37.5555C31.5851 37.9525 31.8658 38.2914 32.2247 38.5297C32.5837 38.768 33.0049 38.8952 33.4358 38.8953C33.729 38.9009 34.0202 38.8461 34.2913 38.7341C34.5623 38.6221 34.8074 38.4555 35.0112 38.2446C35.215 38.0338 35.3731 37.7831 35.4758 37.5084C35.5784 37.2337 35.6233 36.9407 35.6077 36.6479H35.6266Z" fill="#486A6F"/>
<path d="M39.791 29.339C39.791 28.9991 39.8918 28.6668 40.0806 28.3842C40.2695 28.1016 40.5379 27.8813 40.8519 27.7512C41.166 27.6211 41.5115 27.5871 41.8449 27.6534C42.1783 27.7197 42.4845 27.8834 42.7249 28.1237C42.9653 28.3641 43.1289 28.6703 43.1952 29.0037C43.2616 29.3371 43.2275 29.6827 43.0975 29.9967C42.9674 30.3107 42.7471 30.5792 42.4645 30.768C42.1818 30.9568 41.8496 31.0576 41.5096 31.0576C41.0546 31.0552 40.6189 30.8733 40.2971 30.5515C39.9753 30.2298 39.7935 29.7941 39.791 29.339ZM40.0837 31.8886H42.9166V41.4072H40.0837V31.8886Z" fill="#486A6F"/>
<path d="M55.268 36.6479C55.3023 37.2771 55.2119 37.9069 55.0019 38.501C54.7918 39.0951 54.4664 39.6418 54.0442 40.1096C53.622 40.5774 53.1115 40.9571 52.542 41.2268C51.9725 41.4965 51.3553 41.6509 50.7259 41.6811C50.1975 41.7064 49.6699 41.6156 49.1805 41.4149C48.691 41.2142 48.2515 40.9086 47.893 40.5196V45.2411H45.0601V31.8886H47.893V32.7857C48.2515 32.3967 48.691 32.0911 49.1805 31.8904C49.6699 31.6897 50.1975 31.5989 50.7259 31.6242C51.3545 31.6544 51.9709 31.8085 52.5397 32.0776C53.1086 32.3468 53.6187 32.7256 54.0407 33.1924C54.4628 33.6592 54.7884 34.2047 54.999 34.7977C55.2097 35.3907 55.3011 36.0195 55.268 36.6479ZM52.4351 36.6479C52.4239 36.2047 52.2829 35.7745 52.0296 35.4106C51.7763 35.0468 51.4219 34.7651 51.0102 34.6007C50.5985 34.4362 50.1475 34.3961 49.7133 34.4854C49.279 34.5746 48.8804 34.7893 48.5669 35.1028C48.2534 35.4163 48.0388 35.8148 47.9495 36.2491C47.8603 36.6834 47.9004 37.1343 48.0648 37.546C48.2293 37.9577 48.5109 38.3122 48.8748 38.5654C49.2387 38.8187 49.6689 38.9597 50.1121 38.9709C50.4214 38.9906 50.7313 38.9438 51.0211 38.8338C51.3108 38.7237 51.5736 38.5529 51.7919 38.3329C52.0101 38.1128 52.1788 37.8486 52.2865 37.558C52.3941 37.2674 52.4384 36.9571 52.4162 36.6479H52.4351Z" fill="#486A6F"/>
<path d="M64.0879 38.5554C64.0879 40.7462 62.1993 41.681 60.1218 41.681C59.2919 41.7545 58.459 41.5779 57.7303 41.174C57.0017 40.7701 56.4105 40.1574 56.033 39.4147L58.5071 38.0077C58.6075 38.3512 58.8225 38.65 59.1162 38.8544C59.41 39.0588 59.7648 39.1566 60.1218 39.1314C60.8112 39.1314 61.1511 38.9142 61.1511 38.5365C61.1511 37.4883 56.4296 38.0455 56.4296 34.7593C56.4296 32.6818 58.186 31.6336 60.2068 31.6336C60.9525 31.611 61.6907 31.7881 62.3449 32.1468C62.9991 32.5054 63.5454 33.0325 63.9274 33.6733L61.4439 34.9765C61.3342 34.7271 61.1544 34.5149 60.9264 34.3657C60.6984 34.2165 60.4321 34.1367 60.1596 34.136C59.6686 34.136 59.3664 34.3249 59.3664 34.6743C59.4042 35.7602 64.0879 35.0331 64.0879 38.5554Z" fill="#486A6F"/>
<path d="M74.513 31.8886V41.4072H71.68V40.5196C71.3505 40.914 70.9323 41.2248 70.4596 41.4267C69.987 41.6286 69.4732 41.7157 68.9604 41.6811C67.0718 41.6811 65.4004 40.3118 65.4004 37.7339V31.8886H68.2333V37.3184C68.2084 37.5498 68.2354 37.7838 68.3122 38.0035C68.389 38.2232 68.5137 38.423 68.6774 38.5885C68.841 38.754 69.0395 38.8809 69.2583 38.9601C69.4771 39.0394 69.7109 39.0688 69.9425 39.0465C70.9813 39.0465 71.7084 38.4421 71.7084 37.0918V31.8886H74.513Z" fill="#486A6F"/>
<path d="M90.8872 35.5713V41.4071H88.0542V35.8169C88.0542 34.8726 87.5915 34.2493 86.685 34.2493C85.7785 34.2493 85.193 34.9198 85.193 36.0435V41.4071H82.3601V35.8169C82.3601 34.8726 81.9068 34.2493 80.9908 34.2493C80.0749 34.2493 79.5083 34.9198 79.5083 36.0435V41.4071H76.6754V31.8886H79.5083V32.7668C79.8044 32.3789 80.1927 32.0712 80.638 31.8717C81.0833 31.6721 81.5714 31.587 82.0579 31.6242C82.5465 31.6004 83.033 31.7037 83.4698 31.9237C83.9067 32.1438 84.2791 32.4733 84.5509 32.8801C84.8669 32.4548 85.2856 32.1165 85.7678 31.8969C86.25 31.6773 86.78 31.5834 87.3082 31.6242C89.4613 31.6242 90.8872 33.1917 90.8872 35.5713Z" fill="#486A6F"/>
<path d="M93.3047 31.832C94.4729 31.832 95.4199 30.8849 95.4199 29.7167C95.4199 28.5485 94.4729 27.6015 93.3047 27.6015C92.1365 27.6015 91.1894 28.5485 91.1894 29.7167C91.1894 30.8849 92.1365 31.832 93.3047 31.832Z" fill="#486A6F"/>
<path d="M32.8692 20.3115C38.34 20.3115 42.7749 15.8765 42.7749 10.4057C42.7749 4.93496 38.34 0.5 32.8692 0.5C27.3984 0.5 22.9634 4.93496 22.9634 10.4057C22.9634 15.8765 27.3984 20.3115 32.8692 20.3115Z" fill="#486A6F"/>
<path d="M55.0131 20.3115C60.4839 20.3115 64.9188 15.8765 64.9188 10.4057C64.9188 4.93496 60.4839 0.5 55.0131 0.5C49.5423 0.5 45.1073 4.93496 45.1073 10.4057C45.1073 15.8765 49.5423 20.3115 55.0131 20.3115Z" fill="#486A6F"/>
<path d="M20.631 0.5H0.828948V20.302H20.631V0.5Z" fill="#486A6F"/>
</svg>
