<svg width="218" height="40" viewBox="0 0 218 40" fill="none" xmlns="http://www.w3.org/2000/svg">
<path d="M122.175 29.5238H126.838V11.9352H122.175V29.5238ZM122.175 9.19238H126.838V5.00952H122.175V9.19238Z" fill="#486A6F"/>
<path d="M129.843 35.2838H134.506V27.5352H134.574C135.568 29.0438 137.18 30.0381 139.648 30.0381C144.174 30.0381 147.26 26.4381 147.26 20.7467C147.26 15.2609 144.277 11.4552 139.614 11.4552C137.214 11.4552 135.568 12.5867 134.437 14.1295H134.334V11.9352H129.843V35.2838ZM138.654 26.1638C135.877 26.1638 134.403 24.0724 134.403 20.8838C134.403 17.7295 135.568 15.2267 138.483 15.2267C141.363 15.2267 142.528 17.5581 142.528 20.8838C142.528 24.2095 141.02 26.1638 138.654 26.1638Z" fill="#486A6F"/>
<path d="M156.561 30.0381C160.95 30.0381 163.967 27.9124 163.967 24.3809C163.967 20.2667 160.71 19.4438 157.761 18.8267C155.258 18.3124 152.927 18.1752 152.927 16.6667C152.927 15.3981 154.127 14.7124 155.944 14.7124C157.933 14.7124 159.133 15.3981 159.338 17.2838H163.555C163.213 13.7524 160.641 11.4552 156.013 11.4552C152.001 11.4552 148.847 13.2724 148.847 17.0781C148.847 20.9181 151.933 21.7752 155.087 22.3924C157.487 22.8724 159.715 23.0438 159.715 24.7238C159.715 25.9581 158.55 26.7467 156.493 26.7467C154.401 26.7467 152.961 25.8552 152.653 23.8324H148.333C148.607 27.5695 151.453 30.0381 156.561 30.0381Z" fill="#486A6F"/>
<path d="M181.67 29.5238V11.9352H177.007V22.0838C177.007 24.4152 175.67 26.0609 173.476 26.0609C171.487 26.0609 170.562 24.9295 170.562 22.8724V11.9352H165.933V23.6609C165.933 27.5009 168.127 30.0038 172.036 30.0038C174.505 30.0038 175.876 29.0781 177.076 27.4667H177.179V29.5238H181.67Z" fill="#486A6F"/>
<path d="M184.686 29.5238H189.349V19.3067C189.349 16.9752 190.618 15.4667 192.504 15.4667C194.218 15.4667 195.212 16.4952 195.212 18.4838V29.5238H199.875V19.3067C199.875 16.9752 201.075 15.4667 203.029 15.4667C204.744 15.4667 205.738 16.4952 205.738 18.4838V29.5238H210.401V17.6952C210.401 13.8552 208.309 11.4552 204.606 11.4552C202.378 11.4552 200.526 12.6209 199.326 14.5409H199.258C198.401 12.6895 196.618 11.4552 194.389 11.4552C191.955 11.4552 190.241 12.6895 189.281 14.3009H189.178V11.9352H184.686V29.5238Z" fill="#486A6F"/>
<path d="M0.644165 29.5238H5.30702V5.00952H0.644165V29.5238Z" fill="#486A6F"/>
<path d="M16.7084 30.0381C22.1598 30.0381 25.8969 25.9924 25.8969 20.7467C25.8969 15.5009 22.1598 11.4552 16.7084 11.4552C11.2569 11.4552 7.51979 15.5009 7.51979 20.7467C7.51979 25.9924 11.2569 30.0381 16.7084 30.0381ZM16.7084 26.4724C13.8284 26.4724 12.2512 24.1752 12.2512 20.7467C12.2512 17.3181 13.8284 14.9867 16.7084 14.9867C19.5541 14.9867 21.1655 17.3181 21.1655 20.7467C21.1655 24.1752 19.5541 26.4724 16.7084 26.4724Z" fill="#486A6F"/>
<path d="M35.813 35.5238C38.4187 35.5238 40.6816 34.9067 42.1558 33.5352C43.4587 32.3352 44.2473 30.6552 44.2473 28.1867V11.9352H39.7559V13.7867H39.6873C38.6244 12.3124 37.013 11.4552 34.8187 11.4552C30.3616 11.4552 27.2073 14.8152 27.2073 20.0609C27.2073 25.3752 31.0473 28.4609 34.9559 28.4609C37.1844 28.4609 38.5216 27.5695 39.5501 26.4038H39.653V28.3238C39.653 30.7238 38.3844 31.9924 35.7444 31.9924C33.5844 31.9924 32.5901 31.1352 32.213 30.0381H27.5844C28.0644 33.4667 31.013 35.5238 35.813 35.5238ZM35.7444 24.7238C33.3444 24.7238 31.7673 22.9752 31.7673 19.9924C31.7673 17.0438 33.3444 15.1924 35.7101 15.1924C38.5216 15.1924 39.893 17.3867 39.893 19.9581C39.893 22.5638 38.693 24.7238 35.7444 24.7238Z" fill="#486A6F"/>
<path d="M55.5811 30.0381C61.0325 30.0381 64.7697 25.9924 64.7697 20.7467C64.7697 15.5009 61.0325 11.4552 55.5811 11.4552C50.1297 11.4552 46.3925 15.5009 46.3925 20.7467C46.3925 25.9924 50.1297 30.0381 55.5811 30.0381ZM55.5811 26.4724C52.7011 26.4724 51.124 24.1752 51.124 20.7467C51.124 17.3181 52.7011 14.9867 55.5811 14.9867C58.4268 14.9867 60.0383 17.3181 60.0383 20.7467C60.0383 24.1752 58.4268 26.4724 55.5811 26.4724Z" fill="#486A6F"/>
<path d="M212.095 9.04762C212.095 8.25864 212.735 7.61905 213.524 7.61905H216.381C217.17 7.61905 217.81 8.25864 217.81 9.04762C217.81 9.8366 217.17 10.4762 216.381 10.4762H213.524C212.735 10.4762 212.095 9.8366 212.095 9.04762Z" fill="#486A6F"/>
<path fill-rule="evenodd" clip-rule="evenodd" d="M93.0477 0C104.093 0 113.048 8.95431 113.048 20C113.048 31.0457 104.093 40 93.0477 40C82.002 40 73.0477 31.0457 73.0477 20C73.0477 8.95431 82.002 0 93.0477 0ZM92.3248 1.49659C90.0431 1.81769 87.8705 3.65108 86.184 6.7174C85.6948 7.60683 85.2534 8.58946 84.8688 9.65044C87.162 9.07417 89.6811 8.73442 92.3248 8.68187V1.49659ZM83.1784 10.1308C83.6568 8.62958 84.2419 7.2484 84.9172 6.02065C85.7532 4.50059 86.7454 3.18795 87.8633 2.17977C81.7844 3.94523 76.9929 8.73679 75.2274 14.8157C76.2356 13.6978 77.5482 12.7056 79.0683 11.8696C80.2961 11.1943 81.6772 10.6091 83.1784 10.1308ZM82.6981 11.8211C82.1218 14.1143 81.7821 16.6334 81.7295 19.2771H74.5442C74.8653 16.9954 76.6987 14.8228 79.7651 13.1364C80.6545 12.6472 81.6371 12.2058 82.6981 11.8211ZM83.1756 19.2771C83.2353 16.392 83.6507 13.6834 84.3379 11.2902C86.7311 10.603 89.4397 10.1876 92.3248 10.1279V13.2508C91.2485 16.0062 89.0533 18.2012 86.2978 19.2771H83.1756ZM81.7295 20.7229H74.5442C74.8653 23.0046 76.6987 25.1771 79.7651 26.8636C80.6545 27.3528 81.6371 27.7942 82.6981 28.1789C82.1218 25.8857 81.7821 23.3666 81.7295 20.7229ZM84.3379 28.7098C83.6507 26.3166 83.2353 23.608 83.1756 20.7229H86.2978C89.0533 21.7988 91.2485 23.9938 92.3248 26.7492V29.8721C89.4397 29.8124 86.7311 29.397 84.3379 28.7098ZM83.1784 29.8692C81.6772 29.3909 80.2961 28.8057 79.0683 28.1304C77.5482 27.2944 76.2356 26.3022 75.2274 25.1843C76.9929 31.2632 81.7844 36.0548 87.8633 37.8202C86.7454 36.812 85.7532 35.4994 84.9172 33.9793C84.2419 32.7516 83.6568 31.3704 83.1784 29.8692ZM92.3248 38.5034C90.0431 38.1823 87.8705 36.3489 86.184 33.2826C85.6948 32.3932 85.2534 31.4105 84.8688 30.3496C87.162 30.9258 89.6811 31.2656 92.3248 31.3181V38.5034ZM98.232 37.8202C99.3499 36.812 100.342 35.4994 101.178 33.9793C101.853 32.7516 102.439 31.3704 102.917 29.8692C104.418 29.3909 105.799 28.8057 107.027 28.1304C108.547 27.2944 109.86 26.3022 110.868 25.1843C109.102 31.2632 104.311 36.0548 98.232 37.8202ZM101.227 30.3496C100.842 31.4105 100.4 32.3932 99.911 33.2826C98.2248 36.3489 96.0522 38.1823 93.7705 38.5034V31.3181C96.4142 31.2656 98.9333 30.9258 101.227 30.3496ZM103.397 28.1789C104.458 27.7942 105.441 27.3528 106.33 26.8636C109.397 25.1772 111.23 23.0046 111.551 20.7229H104.366C104.313 23.3666 103.973 25.8857 103.397 28.1789ZM102.92 20.7229C102.86 23.608 102.445 26.3166 101.757 28.7098C99.3642 29.397 96.6556 29.8124 93.7705 29.8721V26.7515C94.8465 23.9951 97.0422 21.7991 99.7984 20.7229H102.92ZM104.366 19.2771H111.551C111.23 16.9954 109.397 14.8228 106.33 13.1364C105.441 12.6472 104.458 12.2058 103.397 11.8211C103.973 14.1143 104.313 16.6334 104.366 19.2771ZM101.757 11.2902C102.445 13.6834 102.86 16.392 102.92 19.2771H99.7985C97.0422 18.2009 94.8465 16.0049 93.7705 13.2485V10.1279C96.6556 10.1876 99.3642 10.603 101.757 11.2902ZM102.917 10.1308C104.418 10.6091 105.799 11.1943 107.027 11.8696C108.547 12.7056 109.86 13.6978 110.868 14.8157C109.102 8.73679 104.311 3.94523 98.232 2.17977C99.3499 3.18795 100.342 4.50059 101.178 6.02065C101.853 7.2484 102.439 8.62958 102.917 10.1308ZM93.7705 1.49659C96.0522 1.81769 98.2248 3.65108 99.911 6.7174C100.4 7.60684 100.842 8.58946 101.227 9.65044C98.9333 9.07417 96.4142 8.73442 93.7705 8.68187V1.49659Z" fill="#486A6F"/>
</svg>
