<svg width="61" height="40" viewBox="0 0 61 40" fill="none" xmlns="http://www.w3.org/2000/svg">
<path d="M56.8942 1.25C56.8942 1.94036 57.4538 2.5 58.1442 2.5H59.3942C60.0846 2.5 60.6442 1.94036 60.6442 1.25C60.6442 0.559648 60.0846 3.49691e-06 59.3942 3.49691e-06H58.1442C57.4538 3.49691e-06 56.8942 0.559648 56.8942 1.25Z" fill="#486A6F"/>
<path d="M20.6442 40H26.7165L24.9487 38.2322C24.4799 37.7634 23.844 37.5 23.181 37.5H20.6442C10.9792 37.5 3.14417 29.665 3.14417 20C3.14417 10.335 10.9792 2.50001 20.6442 2.5H40.6442C50.3092 2.5 58.1442 10.335 58.1442 20C58.1442 29.665 50.3092 37.5 40.6442 37.5H33.1626C32.168 37.5 31.2142 37.1049 30.5109 36.4017L28.4399 34.3306C27.2678 33.1585 25.678 32.5 24.0204 32.5H20.6442C13.7406 32.5 8.14417 26.9036 8.14417 20C8.14417 13.0964 13.7406 7.5 20.6442 7.5H40.6442C47.5478 7.5 53.1442 13.0964 53.1442 20C53.1442 26.9036 47.5478 32.5 40.6442 32.5H35.8403C34.8457 32.5 33.8919 32.1049 33.1886 31.4017L31.1175 29.3306C29.9454 28.1585 28.3557 27.5 26.6981 27.5H20.6442C16.5021 27.5 13.1442 24.1421 13.1442 20C13.1442 15.8579 16.5021 12.5 20.6442 12.5H40.6442C44.7863 12.5 48.1442 15.8579 48.1442 20C48.1442 24.0916 44.8677 27.418 40.7954 27.4985L40.7946 27.5H38.9653C37.9707 27.5 37.0169 27.1049 36.3136 26.4017L34.2425 24.3306C33.2808 23.3688 32.0379 22.7529 30.707 22.5628L30.6442 22.5H20.6442C19.2635 22.5 18.1442 21.3807 18.1442 20C18.1442 18.6193 19.2635 17.5 20.6442 17.5H40.6442C42.0249 17.5 43.1442 18.6193 43.1442 20C43.1442 21.3807 42.0249 22.5 40.6442 22.5H35.6442L37.412 24.2678C37.8808 24.7366 38.5167 25 39.1797 25H40.6442C43.4056 25 45.6442 22.7614 45.6442 20C45.6442 17.2386 43.4056 15 40.6442 15H20.6442C17.8828 15 15.6442 17.2386 15.6442 20C15.6442 22.7614 17.8828 25 20.6442 25H29.8231C30.8177 25 31.7715 25.3951 32.4748 26.0983L34.5459 28.1694C35.718 29.3415 37.3077 30 38.9653 30H41.2692V29.9808C46.5009 29.6582 50.6442 25.3129 50.6442 20C50.6442 14.4772 46.167 10 40.6442 10H20.6442C15.1214 10 10.6442 14.4772 10.6442 20C10.6442 25.5229 15.1214 30 20.6442 30H26.6981C27.6927 30 28.6465 30.3951 29.3498 31.0983L31.4209 33.1694C32.593 34.3415 34.1827 35 35.8403 35H40.6442C48.9285 35 55.6442 28.2843 55.6442 20C55.6442 11.7157 48.9285 5 40.6442 5H20.6442C12.3599 5 5.64417 11.7157 5.64417 20C5.64417 28.2843 12.3599 35 20.6442 35H24.0204C25.015 35 25.9688 35.3951 26.6721 36.0983L28.7432 38.1694C29.9153 39.3415 31.505 40 33.1626 40H40.6442C51.6899 40 60.6442 31.0457 60.6442 20C60.6442 8.9543 51.6899 -9.65644e-07 40.6442 0L20.6442 4.13264e-06C9.59846 5.09829e-06 0.644164 8.95431 0.644165 20C0.644166 31.0457 9.59848 40 20.6442 40Z" fill="#486A6F"/>
</svg>
